<svg xmlns="http://www.w3.org/2000/svg" viewBox="0 0 1096 234">
	<g stroke-width="2" stroke-linecap="round" stroke-linejoin="round" stroke-miterlimit="10">
		<g id="Rocket" fill="#FFFFFF" stroke="#DFE1E3">
			<path d="M933,61c-2.8,0-5,2.2-5,5v48h10V66C938,63.2,935.8,61,933,61z"/> 
			<path d="M927,109c-1.7,0-3,1.3-3,3v5h6v-5C930,110.3,928.7,109,927,109z"/>
			<path d="M933,109c-1.7,0-3,1.3-3,3v5h6v-5C936,110.3,934.7,109,933,109z"/>
			<path d="M939,109c-1.7,0-3,1.3-3,3v5h6v-5C942,110.3,940.7,109,939,109z"/>
			<path id="Flames" d="M938,127c0-2.8-2.2-5-5-5s-5,2.2-5,5c0,2.8,5,19,5,19S938,129.8,938,127z"/>
			<animateMotion path="M0,140 L0,-151" begin="0s" dur="20s" calcMode="linear" keyTimes="0;0.6;0.8;1" keyPoints="0;0;1;1" repeatCount="indefinite" />
		</g>
		<path id="Cloud_3" fill="#FFFFFF" stroke="#DFE1E3" d="M641,70c0-7.2-6.2-9-9-9c-0.8,0-1,0-1,0c-0.3-7-5.8-11.3-12-11.3c-4.8,0-8.8,2.7-10.7,6.8c-1.5-2.2-4-3.2-6.8-3.2 c-4.6,0-8.3,3.7-8.3,8.7h-3.3c-4.6,0-8.3,3.4-8.3,8c0,4.6,3.7,8,8.3,8H633C638,78,641,74.3,641,70z">
			<animateMotion path="M517,0 L-643,0" begin="-13.7s" dur="30s" repeatCount="indefinite" />
		</path>
		<path id="Cloud_2" fill="#FFFFFF" stroke="#DFE1E3" d="M444.9,34.3c0.1-0.5,0.1-0.9,0.1-1.4c0-4.5-3.6-8.1-8.1-8.1c-1.1,0-2.1,0.2-3,0.6c-2.1-2.6-5.3-4.3-8.9-4.3c-6.2,0-11.2,5-11.2,11.2 c0,0.9,0.1,1.8,0.3,2.6c-2.4,1.6-4.1,4.3-4.1,7.4c0,4.8,3.9,8.7,8.8,8.7h22.5c4.8,0,8.8-3.9,8.8-8.7C450,38.7,447.9,35.7,444.9,34.3 z">
			<animateMotion path="M688,0 L-452,0" begin="-18.5s" dur="30s" repeatCount="indefinite" />
		</path>
		<g id="Airplane" fill="#FFFFFF" stroke="#DFE1E3">
			<polygon points="297,70 311,83 325,83 302,70"/>
			<path d="M345,75c5.2,0,7,4,7,4s-2.3,4-7,4h-23l-22.7,12h-6.9L306,83h-30l-5-15h5l7,7H345z"/>
			<animateMotion path="M-354,0 L826,0" begin="0s" dur="20s" calcMode="linear" keyTimes="0;0.08;0.46875;1" keyPoints="0;0;1;1" repeatCount="indefinite" />
		</g>
		<path id="Cloud_4" fill="#FFFFFF" stroke="#DFE1E3" d="M1044.2,115.7c0.1-0.3,0.1-0.7,0.1-1c0-3.3-2.7-6-6.1-6c-0.8,0-1.6,0.2-2.3,0.4c-1.5-1.9-3.9-3.2-6.6-3.2c-4.7,0-8.4,3.7-8.4,8.2 c0,0.7,0.1,1.3,0.2,1.9c-1.8,1.1-3.1,3.1-3.1,5.4c0,3.5,2.9,6.4,6.6,6.4h16.9c3.6,0,6.6-2.9,6.6-6.4 C1048,119,1046.4,116.8,1044.2,115.7z">
			<animateMotion path="M80,0 L-1049,0" begin="-2.6s" dur="30s" repeatCount="indefinite" />
		</path>
		<path id="Cloud_1" fill="#FFFFFF" stroke="#DFE1E3" d="M176,134c0-3-2.2-5.4-5-5.9V128h-1.1c0-0.3,0.1-0.7,0.1-1c0-7.2-5.8-13-13-13c-3.9,0-7.3,1.7-9.7,4.4c-0.7-0.2-1.5-0.4-2.3-0.4 c-3.9,0-7,3.1-7,7c0,1.1,0.3,2.2,0.7,3.1c-2.7,0.6-4.7,3-4.7,5.9c0,3.3,2.7,6,6,6h31v-0.1C173.8,139.4,176,137,176,134z">
			<animateMotion path="M964,0 L-179,0" begin="-25.5s" dur="30s" repeatCount="indefinite" />
		</path>
		<g id="Cityscape">
			<g id="Background">
				<g fill="#FFFFFF" stroke="#DFE1E3">
					<path d="M911.5,184.2L862.7,233H973l-48.8-48.8C920.7,180.7,915,180.7,911.5,184.2z"/>
					<path d="M983.5,150.2L900.7,233H1079l-82.8-82.8C992.7,146.7,987,146.7,983.5,150.2z"/>
					<polyline points="965,169 980,184 996.5,167.5 1005,176 1013,168"/>
					<polyline points="904,193 914.5,203.5 928.5,189.5"/>
					<path d="M1092,233c-4.1-6-11.1-10-19-10c-0.4,0-0.8,0-1.2,0c-4.2,0.2-8.3-1.7-11-4.9c-5.7-6.8-14.2-11.1-23.8-11.1 c-9.2,0-17.5,4-23.1,10.4c-4.3,4.9-10.9,6.9-17.3,5.9c-1.1-0.2-2.3-0.3-3.5-0.3c-7.9,0-14.8,4-19,10H1092z"/>
					<polygon points="785,183 785,208 735,208 735,169 729,169 729,164 691,164 691,169 688,169 688,189 684,189 684,189 658,189 658,207 640,207 640,111 638,111 638,105 635,105 635,99 603,99 603,105 600,105 600,111 598,111 598,207 570,207 570,128 525,128 525,207 513,207 513,160 485,160 485,207 476,207 476,153 474,153 474,147 472,147 472,143 469,143 469,139 459,139 459,143 456,143 456,147 454,147 454,153 452,153 452,202 445,202 445,180 442,180 442,170 422,174 422,180 410,180 410,217 404,217 404,192 381,192 381,233 398,233 404,233 410,233 445,233 452,233 476,233 485,233 513,233 532,233 570,233 616,233 640,233 658,233 684,233 695,233 722,233 731,233 785,233 790,233 791,233 836,233 836,219 830,219 830,213 814,213 814,219 808,219 808,183"/>
					<circle cx="725" cy="223" r="5"/>
					<circle cx="797" cy="223" r="5"/>
					<circle cx="293" cy="221" r="6.5"/>
					<circle cx="305" cy="217" r="9"/>
					<polygon points="995,207 990,219 1000,219"/>
					<polygon points="1002,203 995,219 1009,219"/>
					<polygon points="1085,216 1080,228 1090,228"/>
					<circle cx="457" cy="220" r="7"/>
				</g>
				<path fill="none" stroke="#DFE1E3" d="M181,197h24v36h-24V197z M255,233h26v-44h-26V233z M387,192v-16 M394,192v-4 M464,139v-18 M619,99v-8 M725,228v4 M797,228v4 M140,227l-2-2l-2,2v6h4V227z M140,229h4 M148,227l-2-2l-2,2v6h4V227z M148,229h4 M156,227l-2-2l-2,2v6h4V227z M164,229h4 M172,227l-2-2l-2,2v6h4V227z M156,229h4 M164,227l-2-2l-2,2v6h4V227z M32,217h-2l-2,4h6L32,217z M32,213h-2l-2,4h6L32,213z M32,221h-2l-2,4h6L32,221z M32,225h-2l-2,4h6L32,225z M32,229h-2l-2,4h6L32,229z M45,213c0-3.9-3.1-7-7-7s-7,3.1-7,7 M39,213 c0-2.2-1.8-4-4-4s-4,1.8-4,4 M42.5,201.5c-6.4,0-11.5,5.1-11.5,11.5 M31,213c0-3.9-3.1-7-7-7s-7,3.1-7,7 M31,213c0-2.2-1.8-4-4-4 s-4,1.8-4,4 M31,213c0-6.4-5.1-11.5-11.5-11.5 M31,213v-13 M293,233v-5 M305,233v-7 M995,219v4 M1002,219v4 M1085,228v5 M457,233 v-5"/>
			</g>
			<g id="House_B">
				<polygon fill="#FFFFFF" points="1070,221 1070,233 1038,233 1038,221 1054,208"/>
				<polyline fill="#FFFFFF" stroke="#FE5000" points="1070,221 1070,233 1038,233 1038,221"/>
				<path fill="#FFFFFF" stroke="#4C5765" d="M1057,233h-6v-8h6V233z M1054,216c-1.7,0-3,1.3-3,3v2h6v-2C1057,217.3,1055.7,216,1054,216z M1065,225h-4v4h4V225z M1047,225h-4v4 h4V225z"/>
				<polyline fill="none" stroke="#101F31" points="1070,220 1070,212 1064,212 1064,215"/>
				<polyline fill="none" stroke="#4C5765" points="1073,223 1054,208 1035,223"/>
			</g>
			<g id="House_A">
				<polyline fill="none" stroke="#101F31" points="68,210 68,206 56,206 56,212"/>
				<path fill="none" stroke="#4C5765" d="M102,233H54v-16l48-9V233z M132,219h-30v14h30V219z M107,233h20v-9h-20V233z M81,224h-6v9h6V224z M97,223H87v5h10V223z M70,223H60 v5h10V223z"/>
				<path fill="none" stroke="#FE5000" d="M134,219h-32v-4h32V219z M52,217l52-9.8v-4L52,213V217z"/>
			</g>
			<g id="Store">
				<path fill="#FFFFFF" stroke="#4C5765" d="M246,233h-34v-45h34V233z M248,184h-38v4h38V184z M233,222h-8v11h8V222z M225,205h-6v6h6V205z M239,205h-6v6h6V205z M225,193h-6v6 h6V193z M239,193h-6v6h6V193z"/>
				<polygon fill="#FFFFFF" stroke="#101F31" points="247,222 211,222 217,216 241,216"/>
				<path fill="#FFFFFF" stroke="#101F31" d="M220,222c0,2.5-2,4.5-4.5,4.5s-4.5-2-4.5-4.5 M229,222c0,2.5,2,4.5,4.5,4.5s4.5-2,4.5-4.5 M229,222v-6"/>
				<path fill="#FFFFFF" stroke="#FE5000" d="M229,222c0,2.5-2,4.5-4.5,4.5s-4.5-2-4.5-4.5 M238,222c0,2.5,2,4.5,4.5,4.5s4.5-2,4.5-4.5 M220,222l3-6 M235,216l3,6"/>
				<line fill="none" stroke="#101F31" x1="211" y1="222" x2="247" y2="222"/>
				<line fill="none" stroke="#101F31" x1="217" y1="216" x2="241" y2="216"/>
			</g>
			<g id="Pagoda">
				<path fill="none" stroke="#101F31" d="M777,145v-4 M745,145v-4"/>
				<path fill="#FFFFFF" stroke="#FE5000" d="M772,154h-22v-6h22V154z M772,163h-22v6h22V163z M772,178h-22v6h22V178z M772,193h-22v6h22V193z M776,208h-30v6h30V208z M780,223 h-38v10h38V223z"/>
				<path fill="none" stroke="#4C5765" d="M768,233h-12v-6h12V233z"/>
				<line fill="none" stroke="#4C5765" x1="762" y1="227" x2="762" y2="233"/>
				<path fill="#FFFFFF" stroke="#101F31" d="M745,144c8.8,0,16-7.2,16-16c0,8.8,7.2,16,16,16v4h-32V144z M743,163h36v-3c-3.5,0-6.5-2.6-7-6h-22v0c-0.5,3.4-3.5,6-7,6V163z M743,178h36v-3c-3.5,0-6.5-2.6-7-6h-22v0c-0.5,3.4-3.5,6-7,6V178z M743,193h36v-3c-3.5,0-6.5-2.6-7-6h-22v0c-0.5,3.4-3.5,6-7,6 V193z M743,208h36v-3c-3.5,0-6.5-2.6-7-6h-22v0c-0.5,3.4-3.5,6-7,6V208z M737,223h48v-3c-3.5,0-6.5-2.6-7-6h-34v0 c-0.5,3.4-3.5,6-7,6V223z"/>
				<path fill="none" stroke="#4C5765" d="M761,132v-14 M758,122h6 M758,126h6 M757,144h8 M752,159h18 M752,174h18 M752,189h18 M752,204h18"/>
			</g>
			<g id="Capitol">
				<rect x="358" y="213" fill="#FFFFFF" width="42" height="20"/>
				<path fill="#FFFFFF" stroke="#888F98" d="M404,217h32v16h-57 M438,213h-35v4h35V213z M412,221h-4v5h4V221z M421,221h-4v5h4V221z M430,221h-4v5h4V221z M354,217h-32v16h57 M320,217h35v-4h-35V217z M346,226h4v-5h-4V226z M337,226h4v-5h-4V226z M328,226h4v-5h-4V226z"/>
				<path fill="none" stroke="#4C5765" d="M386,163h-14 M369,185h20 M370,169h18 M379,156v-10"/>
				<path fill="#FFFFFF" stroke="#4C5765" d="M374,163v-2c0-2.8,2.2-5,5-5s5,2.2,5,5v2 M386,169h-14v16h14V169z M384,163h-10v6h10V163z M388,185h-18v8h18V185z"/>
				<polygon fill="#FFFFFF" stroke="#4C5765" points="404,205 354,205 354,201 379,189 404,201"/>
				<polyline fill="#FFFFFF" stroke="#4C5765" points="354,205 379,193 404,205"/>
				<path fill="#FFFFFF" stroke="#4C5765" d="M361,217h-6v-4h6V217z M361,227h-6v6h6V227z M360,217h-4v10h4V217z M375,213h-6v4h6V213z M375,227h-6v6h6V227z M374,217h-4v10h4 V217z M389,213h-6v4h6V213z M389,227h-6v6h6V227z M388,217h-4v10h4V217z M403,213h-6v4h6V213z M403,227h-6v6h6V227z M402,217h-4 v10h4V217z M404,209h-50v4h50V209z M402,205h-46v4h46V205z"/>
				<circle fill="none" stroke="#FE5000" cx="379" cy="177" r="3"/>
			</g>
			<g id="Hospital">
 				<path fill="#FFFFFF" stroke="#4C5765" d="M711,233h-30v-22h30V233z M681,169h-52v64h52V169z M661,227h-14v6h14V227z M674,223h-4v10h4V223z M640,223h-4v10h4V223z M676,219 h-42v4h42V219z M677,154h-26v15h26V154z"/>
 				<path fill="#FFFFFF" stroke="#4C5765" d="M706,218h-20 M686,225h20 M656,176h20 M656,159h15 M656,164h15 M656,183h20 M656,190h20 M656,197h20 M656,204h20"/>
 				<path fill="#FFFFFF" stroke="#101F31" d="M651,210h-14v-69h14V210z"/>
 				<path fill="none" stroke="#FE5000" d="M644,146v6 M647,149h-6"/>
 				<line fill="none" stroke="#4C5765" x1="654" y1="227" x2="654" y2="233"/>
 			</g>
			<g id="Skyscraper_B">
 				<line fill="none" stroke="#101F31" x1="568" y1="18" x2="568" y2="1"/>
 				<path fill="#FFFFFF" stroke="#4C5765" d="M591,233h-46V50h46V233z M572,227h-8v6h8V227z M584,38l0-6h-33l0,6l-4,0v12h42V38L584,38z M581,27l-13-9l-13,9v5h26V27z"/>
 				<line fill="none" stroke="#4C5765" x1="563" y1="27" x2="573" y2="27"/>
 				<path fill="none" stroke="#FE5000" d="M552,47v173 M560,220V47 M568,220V47 M576,220V47 M584,220V47"/>
 				<line fill="none" stroke="#4C5765" x1="551" y1="38" x2="585" y2="38"/>
 			</g>
			<g id="Skyscraper_A">
 				<line fill="none" stroke="#FE5000" x1="506" y1="75" x2="506" y2="57"/>
 				<path fill="#FFFFFF" stroke="#4C5765" d="M524,118h-36V97h36V118z M528,118h-44v115h44V118z M520,91h-28v6h28V91z M516,85l-10-11l-10,11v6h20V85z M510,227h-8v6h8V227z"/>
 				<path fill="none" stroke="#101F31" d="M494,103v2 M500,103v2 M506,103v2 M512,103v2 M518,103v2 M494,110v2 M490,125v4 M498,125v4 M506,125v4 M514,125v4 M522,125v4 M490,138v4 M498,138v4 M506,138v4 M514,138v4 M522,138v4 M490,151v4 M498,151v4 M506,151v4 M514,151v4 M522,151v4 M490,164v4 M498,164v4 M506,164v4 M514,164v4 M522,164v4 M490,177v4 M498,177v4 M506,177v4 M514,177v4 M522,177v4 M490,190v4 M498,190v4 M506,190v4 M514,190v4 M522,190v4 M490,203v4 M498,203v4 M506,203v4 M514,203v4 M522,203v4 M490,216v4 M498,216v4 M506,216v4 M514,216v4 M522,216v4 M500,110v2 M506,110v2 M512,110v2 M518,110v2"/>
 				<line fill="none" stroke="#4C5765" x1="502" y1="85" x2="510" y2="85"/>
 			</g>
		</g>
		<g id="Windmills">
			<path fill="#FFFFFF" stroke="#888F98" d="M851.1,233h-4v-46h4V233z"/>
			<path fill="#FFFFFF" stroke="#888F98" d="M853.1,233h-8v-13h8V233z"/>
			<g id="Left_Windmill_Blade" fill="#FFFFFF" stroke="#4C5765">
				<path d="M849,153L849,153c-0.5,0-1,0.4-1.1,0.9l-3.8,23.1l4,3v3h2v-28.9C850.1,153.5,849.6,153,849,153z"/>
				<path d="M821.4,201.1L821.4,201.1c0.3,0.5,0.8,0.7,1.3,0.5l21.9-8.2l0.6-5l2.6-1.5l-1-1.7l-25,14.5C821.3,199.9,821.1,200.6,821.4,201.1z"/>
				<path d="M876.9,200.9L876.9,200.9c0.3-0.5,0.2-1-0.2-1.4l-18.1-14.9l-4.6,2l-2.6-1.5l-1,1.7l25,14.5C875.9,201.6,876.6,201.4,876.9,200.9z "/>
				<circle cx="849.1" cy="185" r="3"/>
				<animateTransform attributeName="transform" type="rotate" from="0 849.1 185" to="360 849.1 185" dur="4.5s" begin="0s" repeatCount="indefinite"/>
			</g>
			<path fill="#FFFFFF" stroke="#888F98" d="M889.1,233h-4v-46h4V233z"/>
			<path fill="#FFFFFF" stroke="#888F98" d="M891.1,233h-8v-13h8V233z"/>
			<g id="Right_Windmill_Blade" fill="#FFFFFF" stroke="#4C5765">
				<path d="M887,153L887,153c-0.5,0-1,0.4-1.1,0.9l-3.8,23.1l4,3v3h2v-28.9C888.1,153.5,887.6,153,887,153z"/> 
				<path d="M859.4,201.1L859.4,201.1c0.3,0.5,0.8,0.7,1.3,0.5l21.9-8.2l0.6-5l2.6-1.5l-1-1.7l-25,14.5C859.3,199.9,859.1,200.6,859.4,201.1z"/>
				<path d="M914.9,200.9L914.9,200.9c0.3-0.5,0.2-1-0.2-1.4l-18.1-14.9l-4.6,2l-2.6-1.5l-1,1.7l25,14.5C913.9,201.6,914.6,201.4,914.9,200.9z "/>
				<circle cx="887.1" cy="185" r="3"/>
				<animateTransform attributeName="transform" type="rotate" from="0 887.1 185" to="360 887.1 185" dur="5.5s" begin="0s" repeatCount="indefinite"/>
			</g>
		</g>
		<line id="Ground_Rule" fill="none" stroke="#4C5765" x1="1" y1="233" x2="1095" y2="233"/>
	</g>
</svg>
